:SAMPLES-PER-SECOND 30
:FRAME-RANGE 1-2091
:FULLY-SPECIFIED
:DEGREES
654
root  17.609 39.3004 -145.195 10.993 -38.3912 -3.14804
RightUpLeg  -14.2763 6.67901 1.16685
RightLeg  23.8777 0.555905 0.0564259
RightFoot  -18.3733 0.253809 6.15436
RightToes  5.38607e-012 1.2921e-014 -6.02303e-014
Spine  -0.276903 -2.94606 -8.25516
Spine1  6.53886 -2.50805 -2.02389
HEad  2.42556 -24.9048 10.4728
LeftShoulder1  1.52243 -2.89829 -18.2052
LeftArm  -7.88259 -4.45513 -53.383
LeftForeArm  31.0968 7.51691 -10.5417
LeftHand  0.0310892 7.05519 4.43384
RightShoulder  1.5264 1.34049 26.8277
RightArm  -27.0873 1.40572 54.2415
RightForeArm  69.5588 -5.16546 2.57737
RightHand  0.0655849 -5.90818 -17.6853
LeftUpLeg  -16.3929 -1.7023 7.66486
LeftLeg  17.2303 -7.6377 0.684521
LeftFoot  -11.7337 0.0548143 -4.52232
LeftToes  -7.20997e-011 3.75522e-011 -2.80735e-011
655
root  17.7121 39.308 -145.091 9.87593 -34.9513 -2.06053
RightUpLeg  -11.2411 9.22117 2.79618
RightLeg  20.8797 1.0362 0.228688
RightFoot  -19.0741 0.274479 5.97116
RightToes  5.38607e-012 1.2921e-014 -6.02303e-014
Spine  -0.99137 -3.07148 -7.88813
Spine1  6.86906 -2.56104 -2.22794
HEad  4.39777 -23.7713 9.06934
LeftShoulder1  1.36312 -2.16105 -18.6291
LeftArm  -8.09472 -5.22131 -52.8003
LeftForeArm  29.8717 7.57361 -10.7972
LeftHand  0.0253814 6.98607 4.20918
RightShoulder  1.50736 1.30634 26.6492
RightArm  -27.2408 -0.238151 54.0791
RightForeArm  69.5986 -5.17786 2.66049
RightHand  0.0664271 -5.91804 -17.5725
LeftUpLeg  -16.3927 -3.00581 6.8629
LeftLeg  16.8288 -9.82155 -0.070099
LeftFoot  -11.7416 0.0547152 -4.47465
LeftToes  -7.20997e-011 3.75522e-011 -2.80735e-011
656
root  17.812 39.3438 -144.932 8.86282 -31.7541 -0.881363
RightUpLeg  -8.56133 9.55671 3.79564
RightLeg  17.012 1.46569 0.300686
RightFoot  -18.4825 0.201529 5.23502
RightToes  5.38607e-012 1.2921e-014 -6.02303e-014
Spine  -1.71257 -3.11768 -7.06129
Spine1  7.09635 -2.46526 -2.64916
HEad  6.28139 -21.2135 7.16791
LeftShoulder1  1.24796 -1.62913 -19.0086
LeftArm  -8.63743 -5.03324 -52.5469
LeftForeArm  28.1777 7.57938 -10.7018
LeftHand  0.0078714 6.53475 3.91363
RightShoulder  1.48876 1.26844 26.5054
RightArm  -26.9427 -2.11443 53.4419
RightForeArm  69.9486 -5.22297 3.01099
RightHand  0.0607235 -5.89698 -17.1101
LeftUpLeg  -16.0901 -4.04334 5.76007
LeftLeg  15.9866 -11.9811 -0.629705
LeftFoot  -11.573 0.0597507 -4.7392
LeftToes  -7.20997e-011 3.75522e-011 -2.80735e-011
657
root  17.9103 39.4461 -144.74 8.06976 -29.488 0.18689
RightUpLeg  -6.58147 6.07666 4.30139
RightLeg  13.6973 2.59777 0.0647916
RightFoot  -17.4003 -0.114067 0.0690739
RightToes  5.38607e-012 1.2921e-014 -6.02303e-014
Spine  -2.63617 -2.86248 -5.67025
Spine1  7.45704 -1.99465 -3.24652
HEad  6.90225 -18.5417 4.94453
LeftShoulder1  1.10602 -1.0393 -19.1844
LeftArm  -8.9493 -4.38243 -52.577
LeftForeArm  26.4172 7.57839 -10.574
LeftHand  -0.00607743 6.03411 3.98988
RightShoulder  1.45566 1.16422 26.5196
RightArm  -27.2016 -3.92482 52.7192
RightForeArm  71.0905 -5.17474 2.98998
RightHand  0.103882 -6.20739 -16.8622
LeftUpLeg  -15.1727 -5.24453 4.48881
LeftLeg  14.1841 -13.0922 -0.383362
LeftFoot  -10.8048 0.0875288 -4.86701
LeftToes  -7.20997e-011 3.75522e-011 -2.80735e-011
